<mxfile host="app.diagrams.net" modified="2024-03-01T08:15:19.164Z" agent="Mozilla/5.0 (Windows NT 10.0; WOW64; x64) AppleWebKit/537.36 (KHTML, like Gecko) Chrome/113.0.5666.197 Safari/537.36" etag="nBWCHz-P_sTmtQLORgzh" version="24.0.0" type="github">
  <diagram name="第 1 页" id="u9oxC_GmH5SRg3YtXVf3">
    <mxGraphModel dx="2827" dy="1569" grid="0" gridSize="10" guides="1" tooltips="1" connect="1" arrows="1" fold="1" page="0" pageScale="1" pageWidth="827" pageHeight="1169" math="1" shadow="0">
      <root>
        <mxCell id="0" />
        <mxCell id="1" parent="0" />
        <mxCell id="3hDGh_fN547TRMsfohZi-88" value="" style="rounded=0;whiteSpace=wrap;html=1;dashed=1;dashPattern=8 8;" parent="1" vertex="1">
          <mxGeometry x="190" y="525" width="160" height="285" as="geometry" />
        </mxCell>
        <mxCell id="3hDGh_fN547TRMsfohZi-86" value="" style="rounded=0;whiteSpace=wrap;html=1;dashed=1;dashPattern=8 8;" parent="1" vertex="1">
          <mxGeometry x="-20" y="525" width="160" height="285" as="geometry" />
        </mxCell>
        <mxCell id="3hDGh_fN547TRMsfohZi-1" value="" style="rounded=0;whiteSpace=wrap;html=1;" parent="1" vertex="1">
          <mxGeometry x="-250" y="40" width="240" height="330" as="geometry" />
        </mxCell>
        <mxCell id="3hDGh_fN547TRMsfohZi-2" value="" style="ellipse;whiteSpace=wrap;html=1;aspect=fixed;" parent="1" vertex="1">
          <mxGeometry x="-110" y="70" width="30" height="30" as="geometry" />
        </mxCell>
        <mxCell id="3hDGh_fN547TRMsfohZi-3" value="" style="ellipse;whiteSpace=wrap;html=1;aspect=fixed;" parent="1" vertex="1">
          <mxGeometry x="-170" y="150" width="30" height="30" as="geometry" />
        </mxCell>
        <mxCell id="3hDGh_fN547TRMsfohZi-4" value="" style="ellipse;whiteSpace=wrap;html=1;aspect=fixed;" parent="1" vertex="1">
          <mxGeometry x="-80" y="140" width="30" height="30" as="geometry" />
        </mxCell>
        <mxCell id="3hDGh_fN547TRMsfohZi-5" value="" style="ellipse;whiteSpace=wrap;html=1;aspect=fixed;" parent="1" vertex="1">
          <mxGeometry x="-210" y="100" width="30" height="30" as="geometry" />
        </mxCell>
        <mxCell id="3hDGh_fN547TRMsfohZi-6" value="" style="ellipse;whiteSpace=wrap;html=1;aspect=fixed;" parent="1" vertex="1">
          <mxGeometry x="-210" y="260" width="30" height="30" as="geometry" />
        </mxCell>
        <mxCell id="3hDGh_fN547TRMsfohZi-7" value="" style="ellipse;whiteSpace=wrap;html=1;aspect=fixed;" parent="1" vertex="1">
          <mxGeometry x="-110" y="220" width="30" height="30" as="geometry" />
        </mxCell>
        <mxCell id="3hDGh_fN547TRMsfohZi-8" value="" style="ellipse;whiteSpace=wrap;html=1;aspect=fixed;" parent="1" vertex="1">
          <mxGeometry x="-100" y="310" width="30" height="30" as="geometry" />
        </mxCell>
        <mxCell id="3hDGh_fN547TRMsfohZi-10" value="" style="endArrow=none;html=1;rounded=0;entryX=0;entryY=1;entryDx=0;entryDy=0;exitX=1;exitY=0;exitDx=0;exitDy=0;" parent="1" source="3hDGh_fN547TRMsfohZi-3" target="3hDGh_fN547TRMsfohZi-2" edge="1">
          <mxGeometry width="50" height="50" relative="1" as="geometry">
            <mxPoint x="-90" y="430" as="sourcePoint" />
            <mxPoint x="-40" y="380" as="targetPoint" />
          </mxGeometry>
        </mxCell>
        <mxCell id="3hDGh_fN547TRMsfohZi-11" value="" style="endArrow=none;html=1;rounded=0;entryX=1;entryY=1;entryDx=0;entryDy=0;exitX=0;exitY=0;exitDx=0;exitDy=0;" parent="1" source="3hDGh_fN547TRMsfohZi-4" target="3hDGh_fN547TRMsfohZi-2" edge="1">
          <mxGeometry width="50" height="50" relative="1" as="geometry">
            <mxPoint x="-90" y="430" as="sourcePoint" />
            <mxPoint x="-40" y="380" as="targetPoint" />
          </mxGeometry>
        </mxCell>
        <mxCell id="3hDGh_fN547TRMsfohZi-12" value="" style="endArrow=none;html=1;rounded=0;entryX=0;entryY=0.5;entryDx=0;entryDy=0;exitX=1;exitY=0.5;exitDx=0;exitDy=0;" parent="1" source="3hDGh_fN547TRMsfohZi-5" target="3hDGh_fN547TRMsfohZi-2" edge="1">
          <mxGeometry width="50" height="50" relative="1" as="geometry">
            <mxPoint x="-90" y="430" as="sourcePoint" />
            <mxPoint x="-40" y="380" as="targetPoint" />
          </mxGeometry>
        </mxCell>
        <mxCell id="3hDGh_fN547TRMsfohZi-13" value="" style="endArrow=none;html=1;rounded=0;entryX=1;entryY=1;entryDx=0;entryDy=0;exitX=0;exitY=0;exitDx=0;exitDy=0;" parent="1" source="3hDGh_fN547TRMsfohZi-7" target="3hDGh_fN547TRMsfohZi-3" edge="1">
          <mxGeometry width="50" height="50" relative="1" as="geometry">
            <mxPoint x="-90" y="430" as="sourcePoint" />
            <mxPoint x="-40" y="380" as="targetPoint" />
          </mxGeometry>
        </mxCell>
        <mxCell id="3hDGh_fN547TRMsfohZi-14" value="" style="endArrow=none;html=1;rounded=0;entryX=0;entryY=1;entryDx=0;entryDy=0;exitX=1;exitY=0;exitDx=0;exitDy=0;" parent="1" source="3hDGh_fN547TRMsfohZi-7" target="3hDGh_fN547TRMsfohZi-4" edge="1">
          <mxGeometry width="50" height="50" relative="1" as="geometry">
            <mxPoint x="-90" y="430" as="sourcePoint" />
            <mxPoint x="-40" y="380" as="targetPoint" />
          </mxGeometry>
        </mxCell>
        <mxCell id="3hDGh_fN547TRMsfohZi-15" value="" style="endArrow=none;html=1;rounded=0;entryX=0.5;entryY=1;entryDx=0;entryDy=0;exitX=0.5;exitY=0;exitDx=0;exitDy=0;" parent="1" source="3hDGh_fN547TRMsfohZi-8" target="3hDGh_fN547TRMsfohZi-7" edge="1">
          <mxGeometry width="50" height="50" relative="1" as="geometry">
            <mxPoint x="-90" y="430" as="sourcePoint" />
            <mxPoint x="-40" y="380" as="targetPoint" />
          </mxGeometry>
        </mxCell>
        <mxCell id="3hDGh_fN547TRMsfohZi-16" value="" style="endArrow=none;html=1;rounded=0;entryX=0.5;entryY=1;entryDx=0;entryDy=0;exitX=0.5;exitY=0;exitDx=0;exitDy=0;" parent="1" source="3hDGh_fN547TRMsfohZi-6" target="3hDGh_fN547TRMsfohZi-5" edge="1">
          <mxGeometry width="50" height="50" relative="1" as="geometry">
            <mxPoint x="-90" y="430" as="sourcePoint" />
            <mxPoint x="-40" y="380" as="targetPoint" />
          </mxGeometry>
        </mxCell>
        <mxCell id="3hDGh_fN547TRMsfohZi-17" value="" style="endArrow=none;html=1;rounded=0;entryX=1;entryY=0.5;entryDx=0;entryDy=0;exitX=0;exitY=0.5;exitDx=0;exitDy=0;" parent="1" source="3hDGh_fN547TRMsfohZi-8" target="3hDGh_fN547TRMsfohZi-6" edge="1">
          <mxGeometry width="50" height="50" relative="1" as="geometry">
            <mxPoint x="-90" y="430" as="sourcePoint" />
            <mxPoint x="-40" y="380" as="targetPoint" />
          </mxGeometry>
        </mxCell>
        <mxCell id="3hDGh_fN547TRMsfohZi-18" value="" style="rounded=0;whiteSpace=wrap;html=1;" parent="1" vertex="1">
          <mxGeometry x="60" y="40" width="240" height="330" as="geometry" />
        </mxCell>
        <mxCell id="3hDGh_fN547TRMsfohZi-32" value="" style="rounded=0;whiteSpace=wrap;html=1;" parent="1" vertex="1">
          <mxGeometry x="170" y="70" width="30" height="30" as="geometry" />
        </mxCell>
        <mxCell id="3hDGh_fN547TRMsfohZi-33" value="" style="rounded=0;whiteSpace=wrap;html=1;" parent="1" vertex="1">
          <mxGeometry x="110" y="120" width="30" height="30" as="geometry" />
        </mxCell>
        <mxCell id="3hDGh_fN547TRMsfohZi-34" value="" style="rounded=0;whiteSpace=wrap;html=1;" parent="1" vertex="1">
          <mxGeometry x="210" y="140" width="30" height="30" as="geometry" />
        </mxCell>
        <mxCell id="3hDGh_fN547TRMsfohZi-35" value="" style="rounded=0;whiteSpace=wrap;html=1;" parent="1" vertex="1">
          <mxGeometry x="130" y="190" width="30" height="30" as="geometry" />
        </mxCell>
        <mxCell id="3hDGh_fN547TRMsfohZi-36" value="" style="rounded=0;whiteSpace=wrap;html=1;" parent="1" vertex="1">
          <mxGeometry x="200" y="230" width="30" height="30" as="geometry" />
        </mxCell>
        <mxCell id="3hDGh_fN547TRMsfohZi-37" value="" style="rounded=0;whiteSpace=wrap;html=1;" parent="1" vertex="1">
          <mxGeometry x="130" y="280" width="30" height="30" as="geometry" />
        </mxCell>
        <mxCell id="3hDGh_fN547TRMsfohZi-38" value="" style="rounded=0;whiteSpace=wrap;html=1;" parent="1" vertex="1">
          <mxGeometry x="220" y="320" width="30" height="30" as="geometry" />
        </mxCell>
        <mxCell id="3hDGh_fN547TRMsfohZi-39" value="" style="endArrow=none;html=1;rounded=0;entryX=0;entryY=0.5;entryDx=0;entryDy=0;exitX=0.5;exitY=0;exitDx=0;exitDy=0;" parent="1" source="3hDGh_fN547TRMsfohZi-33" target="3hDGh_fN547TRMsfohZi-32" edge="1">
          <mxGeometry width="50" height="50" relative="1" as="geometry">
            <mxPoint x="-40" y="310" as="sourcePoint" />
            <mxPoint x="10" y="260" as="targetPoint" />
          </mxGeometry>
        </mxCell>
        <mxCell id="3hDGh_fN547TRMsfohZi-40" value="" style="endArrow=none;html=1;rounded=0;entryX=0.5;entryY=1;entryDx=0;entryDy=0;exitX=0;exitY=0.5;exitDx=0;exitDy=0;" parent="1" source="3hDGh_fN547TRMsfohZi-34" target="3hDGh_fN547TRMsfohZi-32" edge="1">
          <mxGeometry width="50" height="50" relative="1" as="geometry">
            <mxPoint x="-40" y="310" as="sourcePoint" />
            <mxPoint x="10" y="260" as="targetPoint" />
          </mxGeometry>
        </mxCell>
        <mxCell id="3hDGh_fN547TRMsfohZi-41" value="" style="endArrow=none;html=1;rounded=0;entryX=0;entryY=0.5;entryDx=0;entryDy=0;exitX=1;exitY=0.5;exitDx=0;exitDy=0;" parent="1" source="3hDGh_fN547TRMsfohZi-35" target="3hDGh_fN547TRMsfohZi-34" edge="1">
          <mxGeometry width="50" height="50" relative="1" as="geometry">
            <mxPoint x="-40" y="310" as="sourcePoint" />
            <mxPoint x="10" y="260" as="targetPoint" />
          </mxGeometry>
        </mxCell>
        <mxCell id="3hDGh_fN547TRMsfohZi-42" value="" style="endArrow=none;html=1;rounded=0;entryX=0.5;entryY=1;entryDx=0;entryDy=0;exitX=0.5;exitY=0;exitDx=0;exitDy=0;" parent="1" source="3hDGh_fN547TRMsfohZi-37" target="3hDGh_fN547TRMsfohZi-35" edge="1">
          <mxGeometry width="50" height="50" relative="1" as="geometry">
            <mxPoint x="-40" y="310" as="sourcePoint" />
            <mxPoint x="10" y="260" as="targetPoint" />
          </mxGeometry>
        </mxCell>
        <mxCell id="3hDGh_fN547TRMsfohZi-43" value="" style="endArrow=none;html=1;rounded=0;entryX=0;entryY=0.5;entryDx=0;entryDy=0;exitX=1;exitY=0.5;exitDx=0;exitDy=0;" parent="1" source="3hDGh_fN547TRMsfohZi-37" target="3hDGh_fN547TRMsfohZi-36" edge="1">
          <mxGeometry width="50" height="50" relative="1" as="geometry">
            <mxPoint x="-40" y="310" as="sourcePoint" />
            <mxPoint x="10" y="260" as="targetPoint" />
          </mxGeometry>
        </mxCell>
        <mxCell id="3hDGh_fN547TRMsfohZi-44" value="" style="endArrow=none;html=1;rounded=0;entryX=0;entryY=0.5;entryDx=0;entryDy=0;exitX=1;exitY=0.5;exitDx=0;exitDy=0;" parent="1" source="3hDGh_fN547TRMsfohZi-37" target="3hDGh_fN547TRMsfohZi-38" edge="1">
          <mxGeometry width="50" height="50" relative="1" as="geometry">
            <mxPoint x="-40" y="310" as="sourcePoint" />
            <mxPoint x="10" y="260" as="targetPoint" />
          </mxGeometry>
        </mxCell>
        <mxCell id="3hDGh_fN547TRMsfohZi-45" value="" style="endArrow=classic;html=1;rounded=0;exitX=0;exitY=0.5;exitDx=0;exitDy=0;entryX=1;entryY=0.5;entryDx=0;entryDy=0;" parent="1" source="3hDGh_fN547TRMsfohZi-37" target="3hDGh_fN547TRMsfohZi-8" edge="1">
          <mxGeometry width="50" height="50" relative="1" as="geometry">
            <mxPoint x="30" y="310" as="sourcePoint" />
            <mxPoint x="80" y="260" as="targetPoint" />
          </mxGeometry>
        </mxCell>
        <mxCell id="3hDGh_fN547TRMsfohZi-46" value="" style="endArrow=classic;html=1;rounded=0;exitX=0;exitY=0.5;exitDx=0;exitDy=0;entryX=1;entryY=0.5;entryDx=0;entryDy=0;" parent="1" source="3hDGh_fN547TRMsfohZi-38" target="3hDGh_fN547TRMsfohZi-6" edge="1">
          <mxGeometry width="50" height="50" relative="1" as="geometry">
            <mxPoint x="30" y="310" as="sourcePoint" />
            <mxPoint x="80" y="260" as="targetPoint" />
          </mxGeometry>
        </mxCell>
        <mxCell id="3hDGh_fN547TRMsfohZi-47" value="" style="endArrow=classic;html=1;rounded=0;exitX=0;exitY=0.5;exitDx=0;exitDy=0;entryX=1;entryY=0.5;entryDx=0;entryDy=0;" parent="1" source="3hDGh_fN547TRMsfohZi-36" target="3hDGh_fN547TRMsfohZi-7" edge="1">
          <mxGeometry width="50" height="50" relative="1" as="geometry">
            <mxPoint x="30" y="310" as="sourcePoint" />
            <mxPoint x="80" y="260" as="targetPoint" />
          </mxGeometry>
        </mxCell>
        <mxCell id="3hDGh_fN547TRMsfohZi-48" value="" style="endArrow=classic;html=1;rounded=0;exitX=0;exitY=0.5;exitDx=0;exitDy=0;entryX=1;entryY=0.5;entryDx=0;entryDy=0;" parent="1" source="3hDGh_fN547TRMsfohZi-35" target="3hDGh_fN547TRMsfohZi-3" edge="1">
          <mxGeometry width="50" height="50" relative="1" as="geometry">
            <mxPoint x="30" y="310" as="sourcePoint" />
            <mxPoint x="80" y="260" as="targetPoint" />
          </mxGeometry>
        </mxCell>
        <mxCell id="3hDGh_fN547TRMsfohZi-49" value="" style="endArrow=classic;html=1;rounded=0;exitX=0;exitY=0.5;exitDx=0;exitDy=0;entryX=1;entryY=0.5;entryDx=0;entryDy=0;" parent="1" source="3hDGh_fN547TRMsfohZi-34" target="3hDGh_fN547TRMsfohZi-4" edge="1">
          <mxGeometry width="50" height="50" relative="1" as="geometry">
            <mxPoint x="30" y="310" as="sourcePoint" />
            <mxPoint x="80" y="260" as="targetPoint" />
          </mxGeometry>
        </mxCell>
        <mxCell id="3hDGh_fN547TRMsfohZi-50" value="" style="endArrow=classic;html=1;rounded=0;exitX=0;exitY=0.5;exitDx=0;exitDy=0;entryX=1;entryY=0.5;entryDx=0;entryDy=0;" parent="1" source="3hDGh_fN547TRMsfohZi-33" target="3hDGh_fN547TRMsfohZi-5" edge="1">
          <mxGeometry width="50" height="50" relative="1" as="geometry">
            <mxPoint x="30" y="310" as="sourcePoint" />
            <mxPoint x="80" y="260" as="targetPoint" />
          </mxGeometry>
        </mxCell>
        <mxCell id="3hDGh_fN547TRMsfohZi-51" value="" style="endArrow=classic;html=1;rounded=0;exitX=0;exitY=0.5;exitDx=0;exitDy=0;entryX=1;entryY=0.5;entryDx=0;entryDy=0;" parent="1" source="3hDGh_fN547TRMsfohZi-32" target="3hDGh_fN547TRMsfohZi-2" edge="1">
          <mxGeometry width="50" height="50" relative="1" as="geometry">
            <mxPoint x="30" y="310" as="sourcePoint" />
            <mxPoint x="80" y="260" as="targetPoint" />
          </mxGeometry>
        </mxCell>
        <mxCell id="3hDGh_fN547TRMsfohZi-52" value="" style="endArrow=classic;html=1;rounded=0;exitX=1;exitY=0;exitDx=0;exitDy=0;entryX=0;entryY=0.25;entryDx=0;entryDy=0;dashed=1;" parent="1" source="3hDGh_fN547TRMsfohZi-2" target="3hDGh_fN547TRMsfohZi-32" edge="1">
          <mxGeometry width="50" height="50" relative="1" as="geometry">
            <mxPoint x="30" y="310" as="sourcePoint" />
            <mxPoint x="80" y="260" as="targetPoint" />
          </mxGeometry>
        </mxCell>
        <mxCell id="3hDGh_fN547TRMsfohZi-53" value="Physical Network" style="text;html=1;strokeColor=none;fillColor=none;align=center;verticalAlign=middle;whiteSpace=wrap;rounded=0;" parent="1" vertex="1">
          <mxGeometry x="-150" y="-10" width="60" height="30" as="geometry" />
        </mxCell>
        <mxCell id="3hDGh_fN547TRMsfohZi-54" value="Cyber Network" style="text;html=1;strokeColor=none;fillColor=none;align=center;verticalAlign=middle;whiteSpace=wrap;rounded=0;" parent="1" vertex="1">
          <mxGeometry x="150" y="-10" width="60" height="30" as="geometry" />
        </mxCell>
        <mxCell id="3hDGh_fN547TRMsfohZi-55" value="Linear Threshold Model" style="text;html=1;strokeColor=none;fillColor=none;align=center;verticalAlign=middle;whiteSpace=wrap;rounded=0;" parent="1" vertex="1">
          <mxGeometry x="-483" y="40" width="140" height="30" as="geometry" />
        </mxCell>
        <mxCell id="3hDGh_fN547TRMsfohZi-56" value="Node state:Xp(t)" style="text;html=1;strokeColor=none;fillColor=none;align=center;verticalAlign=middle;whiteSpace=wrap;rounded=0;" parent="1" vertex="1">
          <mxGeometry x="-460" y="240" width="60" height="30" as="geometry" />
        </mxCell>
        <mxCell id="3hDGh_fN547TRMsfohZi-57" value="O" style="ellipse;whiteSpace=wrap;html=1;aspect=fixed;" parent="1" vertex="1">
          <mxGeometry x="420" y="90" width="30" height="30" as="geometry" />
        </mxCell>
        <mxCell id="3hDGh_fN547TRMsfohZi-58" value="I" style="ellipse;whiteSpace=wrap;html=1;aspect=fixed;" parent="1" vertex="1">
          <mxGeometry x="370" y="150" width="30" height="30" as="geometry" />
        </mxCell>
        <mxCell id="3hDGh_fN547TRMsfohZi-59" value="D" style="ellipse;whiteSpace=wrap;html=1;aspect=fixed;" parent="1" vertex="1">
          <mxGeometry x="470" y="150" width="30" height="30" as="geometry" />
        </mxCell>
        <mxCell id="3hDGh_fN547TRMsfohZi-60" value="" style="curved=1;endArrow=classic;html=1;rounded=0;exitX=0;exitY=0.5;exitDx=0;exitDy=0;entryX=0.5;entryY=0;entryDx=0;entryDy=0;" parent="1" source="3hDGh_fN547TRMsfohZi-57" target="3hDGh_fN547TRMsfohZi-58" edge="1">
          <mxGeometry width="50" height="50" relative="1" as="geometry">
            <mxPoint x="310" y="300" as="sourcePoint" />
            <mxPoint x="410" y="150" as="targetPoint" />
            <Array as="points">
              <mxPoint x="390" y="110" />
            </Array>
          </mxGeometry>
        </mxCell>
        <mxCell id="3hDGh_fN547TRMsfohZi-61" value="" style="curved=1;endArrow=classic;html=1;rounded=0;exitX=1;exitY=0.5;exitDx=0;exitDy=0;entryX=0.5;entryY=0;entryDx=0;entryDy=0;" parent="1" source="3hDGh_fN547TRMsfohZi-57" target="3hDGh_fN547TRMsfohZi-59" edge="1">
          <mxGeometry width="50" height="50" relative="1" as="geometry">
            <mxPoint x="430" y="115" as="sourcePoint" />
            <mxPoint x="395" y="160" as="targetPoint" />
            <Array as="points">
              <mxPoint x="490" y="110" />
            </Array>
          </mxGeometry>
        </mxCell>
        <mxCell id="3hDGh_fN547TRMsfohZi-62" value="" style="endArrow=classic;html=1;rounded=0;exitX=1;exitY=0.5;exitDx=0;exitDy=0;entryX=0;entryY=0.5;entryDx=0;entryDy=0;" parent="1" source="3hDGh_fN547TRMsfohZi-58" target="3hDGh_fN547TRMsfohZi-59" edge="1">
          <mxGeometry width="50" height="50" relative="1" as="geometry">
            <mxPoint x="310" y="300" as="sourcePoint" />
            <mxPoint x="360" y="250" as="targetPoint" />
          </mxGeometry>
        </mxCell>
        <mxCell id="3hDGh_fN547TRMsfohZi-63" value="" style="endArrow=classic;html=1;rounded=0;" parent="1" edge="1">
          <mxGeometry width="50" height="50" relative="1" as="geometry">
            <mxPoint x="-40" y="400" as="sourcePoint" />
            <mxPoint x="20" y="400" as="targetPoint" />
          </mxGeometry>
        </mxCell>
        <mxCell id="3hDGh_fN547TRMsfohZi-64" value="control line" style="text;html=1;strokeColor=none;fillColor=none;align=center;verticalAlign=middle;whiteSpace=wrap;rounded=0;" parent="1" vertex="1">
          <mxGeometry x="-125" y="390" width="75" height="30" as="geometry" />
        </mxCell>
        <mxCell id="3hDGh_fN547TRMsfohZi-65" value="support line" style="text;html=1;strokeColor=none;fillColor=none;align=center;verticalAlign=middle;whiteSpace=wrap;rounded=0;" parent="1" vertex="1">
          <mxGeometry x="-125" y="430" width="75" height="30" as="geometry" />
        </mxCell>
        <mxCell id="3hDGh_fN547TRMsfohZi-66" value="" style="endArrow=classic;html=1;rounded=0;exitX=1;exitY=0;exitDx=0;exitDy=0;dashed=1;" parent="1" edge="1">
          <mxGeometry width="50" height="50" relative="1" as="geometry">
            <mxPoint x="-40" y="444.29" as="sourcePoint" />
            <mxPoint x="24" y="444.29" as="targetPoint" />
          </mxGeometry>
        </mxCell>
        <mxCell id="3hDGh_fN547TRMsfohZi-67" value="" style="endArrow=classic;html=1;rounded=0;exitX=1;exitY=0.5;exitDx=0;exitDy=0;dashed=1;" parent="1" source="3hDGh_fN547TRMsfohZi-5" edge="1">
          <mxGeometry width="50" height="50" relative="1" as="geometry">
            <mxPoint x="-74" y="84" as="sourcePoint" />
            <mxPoint x="110" y="120" as="targetPoint" />
          </mxGeometry>
        </mxCell>
        <mxCell id="3hDGh_fN547TRMsfohZi-68" value="" style="endArrow=classic;html=1;rounded=0;dashed=1;" parent="1" edge="1">
          <mxGeometry width="50" height="50" relative="1" as="geometry">
            <mxPoint x="-140" y="170" as="sourcePoint" />
            <mxPoint x="210" y="160" as="targetPoint" />
          </mxGeometry>
        </mxCell>
        <mxCell id="3hDGh_fN547TRMsfohZi-69" value="" style="endArrow=classic;html=1;rounded=0;entryX=0;entryY=0.25;entryDx=0;entryDy=0;dashed=1;" parent="1" target="3hDGh_fN547TRMsfohZi-35" edge="1">
          <mxGeometry width="50" height="50" relative="1" as="geometry">
            <mxPoint x="-54" y="170" as="sourcePoint" />
            <mxPoint x="200" y="108" as="targetPoint" />
          </mxGeometry>
        </mxCell>
        <mxCell id="3hDGh_fN547TRMsfohZi-70" value="" style="endArrow=classic;html=1;rounded=0;exitX=1;exitY=1;exitDx=0;exitDy=0;dashed=1;" parent="1" source="3hDGh_fN547TRMsfohZi-7" edge="1">
          <mxGeometry width="50" height="50" relative="1" as="geometry">
            <mxPoint x="-44" y="114" as="sourcePoint" />
            <mxPoint x="200" y="260" as="targetPoint" />
          </mxGeometry>
        </mxCell>
        <mxCell id="3hDGh_fN547TRMsfohZi-71" value="" style="endArrow=classic;html=1;rounded=0;exitX=1;exitY=0;exitDx=0;exitDy=0;dashed=1;" parent="1" source="3hDGh_fN547TRMsfohZi-6" edge="1">
          <mxGeometry width="50" height="50" relative="1" as="geometry">
            <mxPoint x="-34" y="124" as="sourcePoint" />
            <mxPoint x="220" y="330" as="targetPoint" />
          </mxGeometry>
        </mxCell>
        <mxCell id="3hDGh_fN547TRMsfohZi-72" value="" style="endArrow=classic;html=1;rounded=0;exitX=1;exitY=0;exitDx=0;exitDy=0;entryX=0;entryY=0.25;entryDx=0;entryDy=0;dashed=1;" parent="1" source="3hDGh_fN547TRMsfohZi-8" target="3hDGh_fN547TRMsfohZi-37" edge="1">
          <mxGeometry width="50" height="50" relative="1" as="geometry">
            <mxPoint x="-24" y="134" as="sourcePoint" />
            <mxPoint x="230" y="138" as="targetPoint" />
          </mxGeometry>
        </mxCell>
        <mxCell id="3hDGh_fN547TRMsfohZi-73" value="" style="endArrow=classic;html=1;rounded=0;exitX=1;exitY=0;exitDx=0;exitDy=0;dashed=1;" parent="1" source="3hDGh_fN547TRMsfohZi-8" edge="1">
          <mxGeometry width="50" height="50" relative="1" as="geometry">
            <mxPoint x="-14" y="144" as="sourcePoint" />
            <mxPoint x="200" y="260" as="targetPoint" />
          </mxGeometry>
        </mxCell>
        <mxCell id="3hDGh_fN547TRMsfohZi-74" value="Initial failures on nodes in physical and cyber network" style="rounded=0;whiteSpace=wrap;html=1;" parent="1" vertex="1">
          <mxGeometry x="-215" y="600" width="120" height="70" as="geometry" />
        </mxCell>
        <mxCell id="3hDGh_fN547TRMsfohZi-75" value="" style="endArrow=classic;html=1;rounded=0;exitX=1;exitY=0.5;exitDx=0;exitDy=0;" parent="1" source="3hDGh_fN547TRMsfohZi-74" target="3hDGh_fN547TRMsfohZi-76" edge="1">
          <mxGeometry width="50" height="50" relative="1" as="geometry">
            <mxPoint x="70" y="530" as="sourcePoint" />
            <mxPoint x="20" y="640" as="targetPoint" />
          </mxGeometry>
        </mxCell>
        <mxCell id="3hDGh_fN547TRMsfohZi-84" value="" style="edgeStyle=orthogonalEdgeStyle;rounded=0;orthogonalLoop=1;jettySize=auto;html=1;" parent="1" source="3hDGh_fN547TRMsfohZi-76" target="3hDGh_fN547TRMsfohZi-77" edge="1">
          <mxGeometry relative="1" as="geometry" />
        </mxCell>
        <mxCell id="3hDGh_fN547TRMsfohZi-76" value="&lt;font style=&quot;font-size: 11px;&quot;&gt;Intra-layer propagation due to overload and load-redistribution in physical network&lt;/font&gt;" style="rounded=0;whiteSpace=wrap;html=1;" parent="1" vertex="1">
          <mxGeometry y="600" width="120" height="70" as="geometry" />
        </mxCell>
        <mxCell id="3hDGh_fN547TRMsfohZi-80" value="" style="edgeStyle=orthogonalEdgeStyle;rounded=0;orthogonalLoop=1;jettySize=auto;html=1;" parent="1" source="3hDGh_fN547TRMsfohZi-77" target="3hDGh_fN547TRMsfohZi-79" edge="1">
          <mxGeometry relative="1" as="geometry" />
        </mxCell>
        <mxCell id="3hDGh_fN547TRMsfohZi-77" value="Inter-layer propagation due to loss of support in cyber network" style="rounded=0;whiteSpace=wrap;html=1;" parent="1" vertex="1">
          <mxGeometry x="210" y="600" width="120" height="70" as="geometry" />
        </mxCell>
        <mxCell id="3hDGh_fN547TRMsfohZi-82" value="" style="edgeStyle=orthogonalEdgeStyle;rounded=0;orthogonalLoop=1;jettySize=auto;html=1;" parent="1" source="3hDGh_fN547TRMsfohZi-79" target="3hDGh_fN547TRMsfohZi-81" edge="1">
          <mxGeometry relative="1" as="geometry" />
        </mxCell>
        <mxCell id="3hDGh_fN547TRMsfohZi-79" value="Intra-layer propagation due to virus spread and isolation in cyber network" style="rounded=0;whiteSpace=wrap;html=1;" parent="1" vertex="1">
          <mxGeometry x="210" y="720" width="120" height="70" as="geometry" />
        </mxCell>
        <mxCell id="3hDGh_fN547TRMsfohZi-83" value="" style="edgeStyle=orthogonalEdgeStyle;rounded=0;orthogonalLoop=1;jettySize=auto;html=1;" parent="1" source="3hDGh_fN547TRMsfohZi-81" target="3hDGh_fN547TRMsfohZi-76" edge="1">
          <mxGeometry relative="1" as="geometry" />
        </mxCell>
        <mxCell id="3hDGh_fN547TRMsfohZi-81" value="Inter-layer propagation due to loss of control in physical network" style="rounded=0;whiteSpace=wrap;html=1;" parent="1" vertex="1">
          <mxGeometry y="720" width="120" height="70" as="geometry" />
        </mxCell>
        <mxCell id="3hDGh_fN547TRMsfohZi-85" value="Cross domain asynchronous analysis" style="text;html=1;strokeColor=none;fillColor=none;align=center;verticalAlign=middle;whiteSpace=wrap;rounded=0;" parent="1" vertex="1">
          <mxGeometry x="-40" y="840" width="230" height="30" as="geometry" />
        </mxCell>
        <mxCell id="3hDGh_fN547TRMsfohZi-87" value="odd time step" style="text;html=1;strokeColor=none;fillColor=none;align=center;verticalAlign=middle;whiteSpace=wrap;rounded=0;" parent="1" vertex="1">
          <mxGeometry x="15" y="540" width="80" height="30" as="geometry" />
        </mxCell>
        <mxCell id="3hDGh_fN547TRMsfohZi-89" value="even time step" style="text;html=1;strokeColor=none;fillColor=none;align=center;verticalAlign=middle;whiteSpace=wrap;rounded=0;" parent="1" vertex="1">
          <mxGeometry x="225" y="540" width="90" height="30" as="geometry" />
        </mxCell>
        <mxCell id="3hDGh_fN547TRMsfohZi-95" value="" style="edgeStyle=orthogonalEdgeStyle;rounded=0;orthogonalLoop=1;jettySize=auto;html=1;exitX=1;exitY=0.5;exitDx=0;exitDy=0;entryX=0;entryY=0.5;entryDx=0;entryDy=0;fontFamily=Times New Roman;fontSize=15;" parent="1" source="i5I3pmPfCYwwTyvTxAHe-1" target="i5I3pmPfCYwwTyvTxAHe-2" edge="1">
          <mxGeometry relative="1" as="geometry">
            <mxPoint x="-235" y="1527" as="sourcePoint" />
            <mxPoint x="-48" y="1527" as="targetPoint" />
          </mxGeometry>
        </mxCell>
        <mxCell id="3hDGh_fN547TRMsfohZi-96" value="1) lose control $$Ctrl(p_i)\cap On(t) = \emptyset$$" style="edgeLabel;html=1;align=center;verticalAlign=middle;resizable=0;points=[];fontFamily=Times New Roman;fontSize=15;labelBackgroundColor=none;" parent="3hDGh_fN547TRMsfohZi-95" vertex="1" connectable="0">
          <mxGeometry x="-0.2" y="2" relative="1" as="geometry">
            <mxPoint x="11" y="-48" as="offset" />
          </mxGeometry>
        </mxCell>
        <mxCell id="3hDGh_fN547TRMsfohZi-92" value="&quot;0&quot;&lt;br style=&quot;font-size: 15px;&quot;&gt;Online" style="rounded=0;whiteSpace=wrap;html=1;fillColor=#97D077;fontFamily=Times New Roman;fontSize=15;" parent="1" vertex="1">
          <mxGeometry x="192" y="1413" width="60" height="60" as="geometry" />
        </mxCell>
        <mxCell id="3hDGh_fN547TRMsfohZi-94" value="&lt;font color=&quot;#ffffff&quot; style=&quot;font-size: 15px;&quot;&gt;&quot;-1&quot;&lt;br style=&quot;font-size: 15px;&quot;&gt;Offline&lt;/font&gt;" style="rounded=0;whiteSpace=wrap;html=1;fillColor=#000000;fontFamily=Times New Roman;fontSize=15;" parent="1" vertex="1">
          <mxGeometry x="92" y="1521" width="60" height="60" as="geometry" />
        </mxCell>
        <mxCell id="3hDGh_fN547TRMsfohZi-102" value="&quot;1&quot;&lt;br style=&quot;font-size: 15px;&quot;&gt;Infected" style="rounded=0;whiteSpace=wrap;html=1;fillColor=#FF3333;fontFamily=Times New Roman;fontSize=15;" parent="1" vertex="1">
          <mxGeometry x="290" y="1521" width="60" height="60" as="geometry" />
        </mxCell>
        <mxCell id="3hDGh_fN547TRMsfohZi-108" value="(a) Physical Node" style="text;html=1;strokeColor=none;fillColor=none;align=center;verticalAlign=middle;whiteSpace=wrap;rounded=0;fontFamily=Times New Roman;fontSize=15;" parent="1" vertex="1">
          <mxGeometry x="-205" y="1665" width="135" height="30" as="geometry" />
        </mxCell>
        <mxCell id="3hDGh_fN547TRMsfohZi-109" value="(b) Cyber Node" style="text;html=1;strokeColor=none;fillColor=none;align=center;verticalAlign=middle;whiteSpace=wrap;rounded=0;fontFamily=Times New Roman;fontSize=15;" parent="1" vertex="1">
          <mxGeometry x="167.5" y="1665" width="115" height="30" as="geometry" />
        </mxCell>
        <mxCell id="_V2HfAc05BDVifkwutuR-1" value="" style="curved=1;endArrow=classic;html=1;rounded=0;exitX=0;exitY=0.5;exitDx=0;exitDy=0;entryX=0.5;entryY=0;entryDx=0;entryDy=0;fontFamily=Times New Roman;fontSize=15;" parent="1" source="3hDGh_fN547TRMsfohZi-92" target="3hDGh_fN547TRMsfohZi-94" edge="1">
          <mxGeometry width="50" height="50" relative="1" as="geometry">
            <mxPoint x="399" y="1507" as="sourcePoint" />
            <mxPoint x="449" y="1457" as="targetPoint" />
            <Array as="points">
              <mxPoint x="130" y="1471" />
            </Array>
          </mxGeometry>
        </mxCell>
        <mxCell id="_V2HfAc05BDVifkwutuR-2" value="2) not in LCC" style="edgeLabel;html=1;align=center;verticalAlign=middle;resizable=0;points=[];labelBackgroundColor=none;fontFamily=Times New Roman;fontSize=15;" parent="_V2HfAc05BDVifkwutuR-1" vertex="1" connectable="0">
          <mxGeometry x="-0.247" y="15" relative="1" as="geometry">
            <mxPoint x="-70" y="3" as="offset" />
          </mxGeometry>
        </mxCell>
        <mxCell id="_V2HfAc05BDVifkwutuR-3" value="1) lose power $$\forall p_i \in P, c \notin Sp(p_i)$$" style="edgeLabel;html=1;align=center;verticalAlign=middle;resizable=0;points=[];labelBackgroundColor=none;fontFamily=Times New Roman;fontSize=15;" parent="_V2HfAc05BDVifkwutuR-1" vertex="1" connectable="0">
          <mxGeometry x="-0.2956" y="16" relative="1" as="geometry">
            <mxPoint x="-75" y="-27" as="offset" />
          </mxGeometry>
        </mxCell>
        <mxCell id="_V2HfAc05BDVifkwutuR-4" value="" style="curved=1;endArrow=classic;html=1;rounded=0;exitX=1;exitY=0.5;exitDx=0;exitDy=0;entryX=0.5;entryY=0;entryDx=0;entryDy=0;fontFamily=Times New Roman;fontSize=15;" parent="1" source="3hDGh_fN547TRMsfohZi-92" target="3hDGh_fN547TRMsfohZi-102" edge="1">
          <mxGeometry width="50" height="50" relative="1" as="geometry">
            <mxPoint x="399" y="1507" as="sourcePoint" />
            <mxPoint x="449" y="1457" as="targetPoint" />
            <Array as="points">
              <mxPoint x="315" y="1466" />
            </Array>
          </mxGeometry>
        </mxCell>
        <mxCell id="_V2HfAc05BDVifkwutuR-5" value="infect $$T:\alpha_i(t)$$" style="edgeLabel;html=1;align=center;verticalAlign=middle;resizable=0;points=[];fontFamily=Times New Roman;fontSize=15;labelBackgroundColor=none;" parent="_V2HfAc05BDVifkwutuR-4" vertex="1" connectable="0">
          <mxGeometry x="0.5735" y="-27" relative="1" as="geometry">
            <mxPoint x="27" y="-54" as="offset" />
          </mxGeometry>
        </mxCell>
        <mxCell id="_V2HfAc05BDVifkwutuR-6" value="" style="endArrow=classic;html=1;rounded=0;exitX=0;exitY=0.5;exitDx=0;exitDy=0;entryX=1;entryY=0.5;entryDx=0;entryDy=0;fontFamily=Times New Roman;fontSize=15;" parent="1" source="3hDGh_fN547TRMsfohZi-102" target="3hDGh_fN547TRMsfohZi-94" edge="1">
          <mxGeometry width="50" height="50" relative="1" as="geometry">
            <mxPoint x="399" y="1507" as="sourcePoint" />
            <mxPoint x="449" y="1457" as="targetPoint" />
          </mxGeometry>
        </mxCell>
        <mxCell id="_V2HfAc05BDVifkwutuR-7" value="2) not in LCC" style="edgeLabel;html=1;align=center;verticalAlign=middle;resizable=0;points=[];fontFamily=Times New Roman;fontSize=15;" parent="1" vertex="1" connectable="0">
          <mxGeometry x="227.49508907312216" y="1626.0028394182355" as="geometry" />
        </mxCell>
        <mxCell id="_V2HfAc05BDVifkwutuR-8" value="1) lose power $$\forall p_i \in P, c \notin Sp(p_i)$$" style="edgeLabel;html=1;align=center;verticalAlign=middle;resizable=0;points=[];fontFamily=Times New Roman;fontSize=15;labelBackgroundColor=none;" parent="1" vertex="1" connectable="0">
          <mxGeometry x="226.5242895831697" y="1593.0037468475193" as="geometry" />
        </mxCell>
        <mxCell id="_V2HfAc05BDVifkwutuR-9" value="2) overload $$\sum_{p_j \in Neighbour_{p_i}(t_0)} L_{p_j}^*(t) + L_{p_i}(t_0) \geq \theta_{p_i}$$" style="edgeLabel;html=1;align=center;verticalAlign=middle;resizable=0;points=[];fontFamily=Times New Roman;fontSize=15;labelBackgroundColor=none;" parent="1" vertex="1" connectable="0">
          <mxGeometry x="-146.50333333333347" y="1570" as="geometry" />
        </mxCell>
        <mxCell id="i5I3pmPfCYwwTyvTxAHe-1" value="&quot;0&quot;&lt;br style=&quot;border-color: var(--border-color); font-size: 15px;&quot;&gt;&lt;span style=&quot;font-size: 15px;&quot;&gt;Normal&lt;/span&gt;" style="ellipse;whiteSpace=wrap;html=1;aspect=fixed;fillColor=#CCCC00;fontFamily=Times New Roman;fontSize=15;" parent="1" vertex="1">
          <mxGeometry x="-264.5" y="1486" width="60" height="60" as="geometry" />
        </mxCell>
        <mxCell id="i5I3pmPfCYwwTyvTxAHe-2" value="&lt;font color=&quot;#ffffff&quot; style=&quot;font-size: 15px;&quot;&gt;&quot;1&quot;&lt;br style=&quot;border-color: var(--border-color); font-size: 15px;&quot;&gt;&lt;/font&gt;&lt;span style=&quot;color: rgb(255, 255, 255); font-size: 15px;&quot;&gt;Down&lt;/span&gt;" style="ellipse;whiteSpace=wrap;html=1;aspect=fixed;fillColor=#000000;fontFamily=Times New Roman;fontSize=15;" parent="1" vertex="1">
          <mxGeometry x="-70.5" y="1486" width="60" height="60" as="geometry" />
        </mxCell>
        <mxCell id="nRc3fNsSbU6mbXqscD8P-4" style="edgeStyle=orthogonalEdgeStyle;rounded=0;orthogonalLoop=1;jettySize=auto;html=1;exitX=1;exitY=0.5;exitDx=0;exitDy=0;entryX=0;entryY=0.5;entryDx=0;entryDy=0;" edge="1" parent="1" source="nRc3fNsSbU6mbXqscD8P-1">
          <mxGeometry relative="1" as="geometry">
            <mxPoint x="-105" y="2104" as="targetPoint" />
          </mxGeometry>
        </mxCell>
        <mxCell id="nRc3fNsSbU6mbXqscD8P-6" value="$$U_0^1$$" style="edgeLabel;html=1;align=center;verticalAlign=middle;resizable=0;points=[];labelBackgroundColor=none;" vertex="1" connectable="0" parent="nRc3fNsSbU6mbXqscD8P-4">
          <mxGeometry x="-0.0973" y="3" relative="1" as="geometry">
            <mxPoint x="2" y="-13" as="offset" />
          </mxGeometry>
        </mxCell>
        <mxCell id="nRc3fNsSbU6mbXqscD8P-10" style="edgeStyle=orthogonalEdgeStyle;rounded=0;orthogonalLoop=1;jettySize=auto;html=1;exitX=1;exitY=1;exitDx=0;exitDy=0;entryX=0;entryY=0.5;entryDx=0;entryDy=0;" edge="1" parent="1" source="nRc3fNsSbU6mbXqscD8P-1" target="nRc3fNsSbU6mbXqscD8P-9">
          <mxGeometry relative="1" as="geometry" />
        </mxCell>
        <mxCell id="nRc3fNsSbU6mbXqscD8P-1" value="&quot;0&quot;&lt;br style=&quot;border-color: var(--border-color); font-size: 15px;&quot;&gt;&lt;span style=&quot;font-size: 15px;&quot;&gt;Normal&lt;/span&gt;" style="ellipse;whiteSpace=wrap;html=1;aspect=fixed;fillColor=#CCCC00;fontFamily=Times New Roman;fontSize=15;" vertex="1" parent="1">
          <mxGeometry x="-278" y="2074" width="60" height="60" as="geometry" />
        </mxCell>
        <mxCell id="nRc3fNsSbU6mbXqscD8P-5" style="edgeStyle=orthogonalEdgeStyle;rounded=0;orthogonalLoop=1;jettySize=auto;html=1;exitX=1;exitY=0.5;exitDx=0;exitDy=0;entryX=0;entryY=0.5;entryDx=0;entryDy=0;" edge="1" parent="1" source="nRc3fNsSbU6mbXqscD8P-9" target="nRc3fNsSbU6mbXqscD8P-3">
          <mxGeometry relative="1" as="geometry">
            <mxPoint x="13" y="2218.5" as="sourcePoint" />
            <mxPoint x="126" y="2218.5" as="targetPoint" />
          </mxGeometry>
        </mxCell>
        <mxCell id="nRc3fNsSbU6mbXqscD8P-7" value="$$V_0^0$$" style="edgeLabel;html=1;align=center;verticalAlign=middle;resizable=0;points=[];labelBackgroundColor=none;" vertex="1" connectable="0" parent="nRc3fNsSbU6mbXqscD8P-5">
          <mxGeometry x="-0.0088" y="-4" relative="1" as="geometry">
            <mxPoint x="-1" y="-27" as="offset" />
          </mxGeometry>
        </mxCell>
        <mxCell id="nRc3fNsSbU6mbXqscD8P-3" value="&quot;0&quot;&lt;br style=&quot;border-color: var(--border-color); font-size: 15px;&quot;&gt;&lt;span style=&quot;font-size: 15px;&quot;&gt;Normal&lt;/span&gt;" style="ellipse;whiteSpace=wrap;html=1;aspect=fixed;fillColor=#CCCC00;fontFamily=Times New Roman;fontSize=15;" vertex="1" parent="1">
          <mxGeometry x="80" y="2189" width="60" height="60" as="geometry" />
        </mxCell>
        <mxCell id="nRc3fNsSbU6mbXqscD8P-8" value="&lt;font color=&quot;#ffffff&quot; style=&quot;font-size: 15px;&quot;&gt;&quot;1&quot;&lt;br style=&quot;border-color: var(--border-color); font-size: 15px;&quot;&gt;&lt;/font&gt;&lt;span style=&quot;color: rgb(255, 255, 255); font-size: 15px;&quot;&gt;Down&lt;/span&gt;" style="ellipse;whiteSpace=wrap;html=1;aspect=fixed;fillColor=#000000;fontFamily=Times New Roman;fontSize=15;" vertex="1" parent="1">
          <mxGeometry x="-107" y="2074" width="60" height="60" as="geometry" />
        </mxCell>
        <mxCell id="nRc3fNsSbU6mbXqscD8P-15" style="edgeStyle=orthogonalEdgeStyle;rounded=0;orthogonalLoop=1;jettySize=auto;html=1;exitX=1;exitY=1;exitDx=0;exitDy=0;entryX=0;entryY=0.5;entryDx=0;entryDy=0;" edge="1" parent="1" source="nRc3fNsSbU6mbXqscD8P-9" target="nRc3fNsSbU6mbXqscD8P-14">
          <mxGeometry relative="1" as="geometry" />
        </mxCell>
        <mxCell id="nRc3fNsSbU6mbXqscD8P-9" value="&quot;0&quot;&lt;br style=&quot;border-color: var(--border-color); font-size: 15px;&quot;&gt;&lt;span style=&quot;font-size: 15px;&quot;&gt;Normal&lt;/span&gt;" style="ellipse;whiteSpace=wrap;html=1;aspect=fixed;fillColor=#CCCC00;fontFamily=Times New Roman;fontSize=15;" vertex="1" parent="1">
          <mxGeometry x="-107" y="2189" width="60" height="60" as="geometry" />
        </mxCell>
        <mxCell id="nRc3fNsSbU6mbXqscD8P-13" value="$$U_0^0$$" style="edgeLabel;html=1;align=center;verticalAlign=middle;resizable=0;points=[];labelBackgroundColor=none;" vertex="1" connectable="0" parent="1">
          <mxGeometry x="-158" y="2177" as="geometry">
            <mxPoint x="14" as="offset" />
          </mxGeometry>
        </mxCell>
        <mxCell id="nRc3fNsSbU6mbXqscD8P-14" value="&lt;font color=&quot;#ffffff&quot; style=&quot;font-size: 15px;&quot;&gt;&quot;1&quot;&lt;br style=&quot;border-color: var(--border-color); font-size: 15px;&quot;&gt;&lt;/font&gt;&lt;span style=&quot;color: rgb(255, 255, 255); font-size: 15px;&quot;&gt;Down&lt;/span&gt;" style="ellipse;whiteSpace=wrap;html=1;aspect=fixed;fillColor=#000000;fontFamily=Times New Roman;fontSize=15;" vertex="1" parent="1">
          <mxGeometry x="80" y="2294" width="60" height="60" as="geometry" />
        </mxCell>
        <mxCell id="nRc3fNsSbU6mbXqscD8P-16" value="$$V_0^1$$" style="edgeLabel;html=1;align=center;verticalAlign=middle;resizable=0;points=[];labelBackgroundColor=none;" vertex="1" connectable="0" parent="1">
          <mxGeometry x="50" y="2287" as="geometry">
            <mxPoint x="-16" y="4" as="offset" />
          </mxGeometry>
        </mxCell>
        <mxCell id="nRc3fNsSbU6mbXqscD8P-17" value="" style="endArrow=none;html=1;rounded=0;" edge="1" parent="1">
          <mxGeometry width="50" height="50" relative="1" as="geometry">
            <mxPoint x="-251" y="2426" as="sourcePoint" />
            <mxPoint x="110" y="2426" as="targetPoint" />
          </mxGeometry>
        </mxCell>
        <mxCell id="nRc3fNsSbU6mbXqscD8P-21" value="$$t-1$$" style="edgeLabel;html=1;align=center;verticalAlign=middle;resizable=0;points=[];" vertex="1" connectable="0" parent="nRc3fNsSbU6mbXqscD8P-17">
          <mxGeometry x="-0.9478" y="-2" relative="1" as="geometry">
            <mxPoint y="21" as="offset" />
          </mxGeometry>
        </mxCell>
        <mxCell id="nRc3fNsSbU6mbXqscD8P-22" value="$$\hat{t}$$" style="edgeLabel;html=1;align=center;verticalAlign=middle;resizable=0;points=[];" vertex="1" connectable="0" parent="1">
          <mxGeometry x="-80" y="2449" as="geometry" />
        </mxCell>
        <mxCell id="nRc3fNsSbU6mbXqscD8P-23" value="$$t$$" style="edgeLabel;html=1;align=center;verticalAlign=middle;resizable=0;points=[];" vertex="1" connectable="0" parent="1">
          <mxGeometry x="107" y="2449" as="geometry" />
        </mxCell>
        <mxCell id="nRc3fNsSbU6mbXqscD8P-24" value="" style="endArrow=none;html=1;rounded=0;" edge="1" parent="1">
          <mxGeometry width="50" height="50" relative="1" as="geometry">
            <mxPoint x="-250" y="2425" as="sourcePoint" />
            <mxPoint x="-250" y="2393" as="targetPoint" />
          </mxGeometry>
        </mxCell>
        <mxCell id="nRc3fNsSbU6mbXqscD8P-25" value="" style="endArrow=none;html=1;rounded=0;" edge="1" parent="1">
          <mxGeometry width="50" height="50" relative="1" as="geometry">
            <mxPoint x="-81" y="2425" as="sourcePoint" />
            <mxPoint x="-81" y="2393" as="targetPoint" />
          </mxGeometry>
        </mxCell>
        <mxCell id="nRc3fNsSbU6mbXqscD8P-26" value="" style="endArrow=none;html=1;rounded=0;" edge="1" parent="1">
          <mxGeometry width="50" height="50" relative="1" as="geometry">
            <mxPoint x="109.5" y="2426" as="sourcePoint" />
            <mxPoint x="109.5" y="2394" as="targetPoint" />
          </mxGeometry>
        </mxCell>
        <mxCell id="nRc3fNsSbU6mbXqscD8P-31" style="edgeStyle=orthogonalEdgeStyle;rounded=0;orthogonalLoop=1;jettySize=auto;html=1;exitX=1;exitY=0.5;exitDx=0;exitDy=0;entryX=0;entryY=0.5;entryDx=0;entryDy=0;" edge="1" parent="1" source="nRc3fNsSbU6mbXqscD8P-27" target="nRc3fNsSbU6mbXqscD8P-28">
          <mxGeometry relative="1" as="geometry" />
        </mxCell>
        <mxCell id="nRc3fNsSbU6mbXqscD8P-38" value="$$Q_0^{-1}$$" style="edgeLabel;html=1;align=center;verticalAlign=middle;resizable=0;points=[];" vertex="1" connectable="0" parent="nRc3fNsSbU6mbXqscD8P-31">
          <mxGeometry x="-0.1685" relative="1" as="geometry">
            <mxPoint x="5" y="-21" as="offset" />
          </mxGeometry>
        </mxCell>
        <mxCell id="nRc3fNsSbU6mbXqscD8P-32" style="edgeStyle=orthogonalEdgeStyle;rounded=0;orthogonalLoop=1;jettySize=auto;html=1;exitX=0.5;exitY=1;exitDx=0;exitDy=0;entryX=0;entryY=0.5;entryDx=0;entryDy=0;" edge="1" parent="1" source="nRc3fNsSbU6mbXqscD8P-27" target="nRc3fNsSbU6mbXqscD8P-30">
          <mxGeometry relative="1" as="geometry" />
        </mxCell>
        <mxCell id="nRc3fNsSbU6mbXqscD8P-40" value="$$Q_0^0$$" style="edgeLabel;html=1;align=center;verticalAlign=middle;resizable=0;points=[];" vertex="1" connectable="0" parent="nRc3fNsSbU6mbXqscD8P-32">
          <mxGeometry x="0.3353" y="1" relative="1" as="geometry">
            <mxPoint x="2" y="-19" as="offset" />
          </mxGeometry>
        </mxCell>
        <mxCell id="nRc3fNsSbU6mbXqscD8P-27" value="&quot;0&quot;&lt;br style=&quot;font-size: 15px;&quot;&gt;Online" style="rounded=0;whiteSpace=wrap;html=1;fillColor=#97D077;fontFamily=Times New Roman;fontSize=15;" vertex="1" parent="1">
          <mxGeometry x="424" y="2090" width="60" height="60" as="geometry" />
        </mxCell>
        <mxCell id="nRc3fNsSbU6mbXqscD8P-28" value="&lt;font color=&quot;#ffffff&quot; style=&quot;font-size: 15px;&quot;&gt;&quot;-1&quot;&lt;br style=&quot;font-size: 15px;&quot;&gt;Offline&lt;/font&gt;" style="rounded=0;whiteSpace=wrap;html=1;fillColor=#000000;fontFamily=Times New Roman;fontSize=15;" vertex="1" parent="1">
          <mxGeometry x="595" y="2090" width="60" height="60" as="geometry" />
        </mxCell>
        <mxCell id="nRc3fNsSbU6mbXqscD8P-29" value="&quot;1&quot;&lt;br style=&quot;font-size: 15px;&quot;&gt;Infected" style="rounded=0;whiteSpace=wrap;html=1;fillColor=#FF3333;fontFamily=Times New Roman;fontSize=15;" vertex="1" parent="1">
          <mxGeometry x="785" y="2346" width="60" height="60" as="geometry" />
        </mxCell>
        <mxCell id="nRc3fNsSbU6mbXqscD8P-35" style="edgeStyle=orthogonalEdgeStyle;rounded=0;orthogonalLoop=1;jettySize=auto;html=1;exitX=1;exitY=0.5;exitDx=0;exitDy=0;entryX=0;entryY=0.5;entryDx=0;entryDy=0;" edge="1" parent="1" source="nRc3fNsSbU6mbXqscD8P-30" target="nRc3fNsSbU6mbXqscD8P-34">
          <mxGeometry relative="1" as="geometry" />
        </mxCell>
        <mxCell id="nRc3fNsSbU6mbXqscD8P-41" value="$$R_0^0$$" style="edgeLabel;html=1;align=center;verticalAlign=middle;resizable=0;points=[];labelBackgroundColor=none;" vertex="1" connectable="0" parent="nRc3fNsSbU6mbXqscD8P-35">
          <mxGeometry x="-0.1195" relative="1" as="geometry">
            <mxPoint x="-1" y="-18" as="offset" />
          </mxGeometry>
        </mxCell>
        <mxCell id="nRc3fNsSbU6mbXqscD8P-36" style="edgeStyle=orthogonalEdgeStyle;rounded=0;orthogonalLoop=1;jettySize=auto;html=1;exitX=0.5;exitY=1;exitDx=0;exitDy=0;entryX=0;entryY=0.5;entryDx=0;entryDy=0;" edge="1" parent="1" source="nRc3fNsSbU6mbXqscD8P-30" target="nRc3fNsSbU6mbXqscD8P-29">
          <mxGeometry relative="1" as="geometry" />
        </mxCell>
        <mxCell id="nRc3fNsSbU6mbXqscD8P-42" value="$$R_0^1$$" style="edgeLabel;html=1;align=center;verticalAlign=middle;resizable=0;points=[];labelBackgroundColor=none;" vertex="1" connectable="0" parent="nRc3fNsSbU6mbXqscD8P-36">
          <mxGeometry x="0.3206" relative="1" as="geometry">
            <mxPoint x="2" y="-14" as="offset" />
          </mxGeometry>
        </mxCell>
        <mxCell id="nRc3fNsSbU6mbXqscD8P-37" style="edgeStyle=orthogonalEdgeStyle;rounded=0;orthogonalLoop=1;jettySize=auto;html=1;exitX=0.5;exitY=1;exitDx=0;exitDy=0;entryX=0;entryY=0.5;entryDx=0;entryDy=0;" edge="1" parent="1" source="nRc3fNsSbU6mbXqscD8P-30" target="nRc3fNsSbU6mbXqscD8P-33">
          <mxGeometry relative="1" as="geometry" />
        </mxCell>
        <mxCell id="nRc3fNsSbU6mbXqscD8P-43" value="$$R_0^{-1}$$" style="edgeLabel;html=1;align=center;verticalAlign=middle;resizable=0;points=[];labelBackgroundColor=none;" vertex="1" connectable="0" parent="nRc3fNsSbU6mbXqscD8P-37">
          <mxGeometry x="0.5178" y="2" relative="1" as="geometry">
            <mxPoint x="7" y="-12" as="offset" />
          </mxGeometry>
        </mxCell>
        <mxCell id="nRc3fNsSbU6mbXqscD8P-30" value="&quot;0&quot;&lt;br style=&quot;font-size: 15px;&quot;&gt;Online" style="rounded=0;whiteSpace=wrap;html=1;fillColor=#97D077;fontFamily=Times New Roman;fontSize=15;" vertex="1" parent="1">
          <mxGeometry x="595" y="2243" width="60" height="60" as="geometry" />
        </mxCell>
        <mxCell id="nRc3fNsSbU6mbXqscD8P-33" value="&lt;font color=&quot;#ffffff&quot; style=&quot;font-size: 15px;&quot;&gt;&quot;-1&quot;&lt;br style=&quot;font-size: 15px;&quot;&gt;Offline&lt;/font&gt;" style="rounded=0;whiteSpace=wrap;html=1;fillColor=#000000;fontFamily=Times New Roman;fontSize=15;" vertex="1" parent="1">
          <mxGeometry x="785" y="2449" width="60" height="60" as="geometry" />
        </mxCell>
        <mxCell id="nRc3fNsSbU6mbXqscD8P-34" value="&quot;0&quot;&lt;br style=&quot;font-size: 15px;&quot;&gt;Online" style="rounded=0;whiteSpace=wrap;html=1;fillColor=#97D077;fontFamily=Times New Roman;fontSize=15;" vertex="1" parent="1">
          <mxGeometry x="785" y="2243" width="60" height="60" as="geometry" />
        </mxCell>
        <mxCell id="nRc3fNsSbU6mbXqscD8P-44" value="" style="endArrow=none;html=1;rounded=0;" edge="1" parent="1">
          <mxGeometry width="50" height="50" relative="1" as="geometry">
            <mxPoint x="453" y="2609" as="sourcePoint" />
            <mxPoint x="814" y="2609" as="targetPoint" />
          </mxGeometry>
        </mxCell>
        <mxCell id="nRc3fNsSbU6mbXqscD8P-45" value="$$t-1$$" style="edgeLabel;html=1;align=center;verticalAlign=middle;resizable=0;points=[];" vertex="1" connectable="0" parent="nRc3fNsSbU6mbXqscD8P-44">
          <mxGeometry x="-0.9478" y="-2" relative="1" as="geometry">
            <mxPoint y="21" as="offset" />
          </mxGeometry>
        </mxCell>
        <mxCell id="nRc3fNsSbU6mbXqscD8P-46" value="$$\hat{t}$$" style="edgeLabel;html=1;align=center;verticalAlign=middle;resizable=0;points=[];" vertex="1" connectable="0" parent="1">
          <mxGeometry x="624" y="2632" as="geometry" />
        </mxCell>
        <mxCell id="nRc3fNsSbU6mbXqscD8P-47" value="$$t$$" style="edgeLabel;html=1;align=center;verticalAlign=middle;resizable=0;points=[];" vertex="1" connectable="0" parent="1">
          <mxGeometry x="811" y="2632" as="geometry" />
        </mxCell>
        <mxCell id="nRc3fNsSbU6mbXqscD8P-48" value="" style="endArrow=none;html=1;rounded=0;" edge="1" parent="1">
          <mxGeometry width="50" height="50" relative="1" as="geometry">
            <mxPoint x="454" y="2608" as="sourcePoint" />
            <mxPoint x="454" y="2576" as="targetPoint" />
          </mxGeometry>
        </mxCell>
        <mxCell id="nRc3fNsSbU6mbXqscD8P-49" value="" style="endArrow=none;html=1;rounded=0;" edge="1" parent="1">
          <mxGeometry width="50" height="50" relative="1" as="geometry">
            <mxPoint x="623" y="2608" as="sourcePoint" />
            <mxPoint x="623" y="2576" as="targetPoint" />
          </mxGeometry>
        </mxCell>
        <mxCell id="nRc3fNsSbU6mbXqscD8P-50" value="" style="endArrow=none;html=1;rounded=0;" edge="1" parent="1">
          <mxGeometry width="50" height="50" relative="1" as="geometry">
            <mxPoint x="813.5" y="2609" as="sourcePoint" />
            <mxPoint x="813.5" y="2577" as="targetPoint" />
          </mxGeometry>
        </mxCell>
      </root>
    </mxGraphModel>
  </diagram>
</mxfile>
